<svg width="47" height="31" viewBox="0 0 47 31" fill="none" xmlns="http://www.w3.org/2000/svg">
<path d="M33.1684 0.620178L45.5287 13.6415C46.3791 14.4698 46.3791 15.8128 45.5287 16.6407C44.6792 17.4687 43.3013 17.4687 42.4518 16.6407L30.6299 5.11884L18.8084 16.6404C17.9585 17.4684 16.5807 17.4684 15.7312 16.6404C14.8813 15.8124 14.8813 14.4695 15.7312 13.6412L29.0918 0.619843C29.5167 0.205853 30.0731 -0.000907898 30.6298 -0.000907898C31.1868 -0.000907898 32.7436 0.206255 33.1684 0.620178Z" fill="#FCCA4C"/>
<rect x="41" y="13.0938" width="5" height="17" rx="2.5" fill="#FCCA4C"/>
<rect x="15" y="13.0938" width="5" height="17" rx="2.5" fill="#FCCA4C"/>
<rect y="13.0938" width="5" height="17" rx="2.5" fill="#4C7EFC"/>
<rect x="26" y="13.0938" width="5" height="17" rx="2.5" fill="#4C7EFC"/>
<path d="M17.1684 0.620178L30.5287 13.6415C31.3791 14.4698 31.3791 15.8128 30.5287 16.6407C29.6792 17.4687 28.3013 17.4687 27.4518 16.6407L15.6299 5.11884L3.80842 16.6404C2.95851 17.4684 1.58074 17.4684 0.73118 16.6404C-0.118727 15.8124 -0.118727 14.4695 0.73118 13.6412L14.0918 0.619843C14.5167 0.205853 15.0731 -0.000907898 15.6298 -0.000907898C16.1868 -0.000907898 16.7436 0.206255 17.1684 0.620178Z" fill="#4C7EFC"/>
</svg>
